<?xml version="1.0" encoding="utf-8" standalone="no"?>
<!DOCTYPE svg PUBLIC "-//W3C//DTD SVG 1.1//EN"
  "http://www.w3.org/Graphics/SVG/1.1/DTD/svg11.dtd">
<svg xmlns:xlink="http://www.w3.org/1999/xlink" width="209.225047pt" height="280.512pt" viewBox="0 0 209.225047 280.512" xmlns="http://www.w3.org/2000/svg" version="1.1">
 <metadata>
  <rdf:RDF xmlns:dc="http://purl.org/dc/elements/1.1/" xmlns:cc="http://creativecommons.org/ns#" xmlns:rdf="http://www.w3.org/1999/02/22-rdf-syntax-ns#">
   <cc:Work>
    <dc:type rdf:resource="http://purl.org/dc/dcmitype/StillImage"/>
    <dc:date>2023-10-02T14:54:03.177477</dc:date>
    <dc:format>image/svg+xml</dc:format>
    <dc:creator>
     <cc:Agent>
      <dc:title>Matplotlib v3.7.1, https://matplotlib.org/</dc:title>
     </cc:Agent>
    </dc:creator>
   </cc:Work>
  </rdf:RDF>
 </metadata>
 <defs>
  <style type="text/css">*{stroke-linejoin: round; stroke-linecap: butt}</style>
 </defs>
 <g id="figure_1">
  <g id="axes_1">
   <g id="line2d_1">
    <path d="M 180.957595 256.5042 
L 181.017761 256.496659 
L 181.02798 256.596565 
L 181.198987 257.297734 
L 181.523287 257.336722 
L 181.515792 257.41287 
L 181.610153 257.756449 
L 181.574044 257.953825 
L 181.202394 258.137189 
L 180.055422 258.559353 
L 178.360344 259.026596 
L 178.02889 258.892576 
L 176.68366 258.366242 
L 175.450845 258.342483 
L 174.788279 257.933722 
L 174.50111 257.448203 
L 174.120603 256.941972 
L 173.422269 256.237147 
L 172.917084 256.206078 
L 171.960195 256.034289 
L 170.482452 255.635274 
L 169.784799 255.762593 
L 167.669698 256.60022 
L 167.039153 256.913949 
L 164.414438 257.735128 
L 163.969889 258.256589 
L 163.025605 259.409772 
L 162.690064 259.566332 
L 161.988664 259.576688 
L 161.790064 259.51577 
L 159.959407 258.196889 
L 159.860618 258.1512 
L 159.85108 258.151809 
L 159.530187 258.274255 
L 158.962662 258.495388 
L 158.125342 257.389112 
L 157.523412 255.903924 
L 157.527895 254.90409 
L 157.428711 255.994083 
L 156.00411 256.27918 
L 155.689008 256.067794 
L 155.333709 255.926463 
L 154.946048 255.774777 
L 154.667736 255.721169 
L 153.634202 255.808891 
L 153.293891 255.969106 
L 151.700327 256.186585 
L 151.412817 256.187803 
L 150.818722 256.226181 
L 149.9906 256.104345 
L 150.018874 256.054392 
L 149.876482 255.672434 
L 149.586248 255.292913 
L 149.149874 255.099193 
L 148.839882 254.942633 
L 148.722016 254.642305 
L 148.593591 254.011192 
L 148.091812 253.402618 
L 148.066604 252.878111 
L 148.175612 252.08861 
L 148.093175 251.42521 
L 147.88674 250.442597 
L 147.707899 249.344849 
L 147.360776 248.563268 
L 146.563653 246.808211 
L 146.699572 246.36168 
L 146.994235 245.909666 
L 147.073607 244.836895 
L 147.118232 244.388536 
L 147.081101 243.704423 
L 147.27425 241.993837 
L 147.042608 241.488215 
L 146.794273 241.008788 
L 146.578982 239.648483 
L 146.471336 238.747501 
L 146.13852 236.665922 
L 145.568271 234.965083 
L 145.551579 233.961149 
L 145.225917 233.362932 
L 144.88731 232.545408 
L 145.261685 232.239598 
L 145.937196 231.855813 
L 146.431821 231.308766 
L 146.681858 230.926808 
L 147.587308 229.087685 
L 147.864598 228.716692 
L 148.451199 228.163554 
L 148.593932 227.68169 
L 148.521032 227.201045 
L 148.145294 226.611965 
L 147.812819 225.905312 
L 147.893553 225.42223 
L 148.200139 223.846883 
L 148.191282 222.861225 
L 148.189238 221.735454 
L 148.811948 217.811706 
L 148.803432 216.342357 
L 148.69238 215.312837 
L 148.668534 214.838284 
L 148.633106 213.784397 
L 148.605173 213.19288 
L 148.804454 212.67081 
L 149.767474 211.047337 
L 150.154453 209.320303 
L 150.368382 208.169556 
L 150.596959 207.216185 
L 150.355437 206.5339 
L 149.439427 205.867454 
L 149.14783 205.031654 
L 148.803091 204.501665 
L 148.859639 204.103259 
L 149.261267 203.240656 
L 149.493591 202.652795 
L 149.334507 201.617792 
L 149.40434 201.238881 
L 149.505513 200.674777 
L 149.397186 200.137478 
L 149.159412 199.338229 
L 148.865771 198.660818 
L 148.693402 198.224034 
L 147.99098 197.323052 
L 147.30014 196.755293 
L 147.256536 196.411105 
L 147.507255 194.655439 
L 147.342721 194.052348 
L 147.223493 193.507738 
L 147.310019 192.132812 
L 147.107672 191.646684 
L 146.985378 191.137407 
L 146.564675 189.967775 
L 146.125916 189.840456 
L 145.39488 189.555968 
L 144.52111 189.041817 
L 144.331368 188.643411 
L 144.177734 187.01141 
L 144.111648 186.663566 
L 144.006387 186.104336 
L 143.975728 185.454947 
L 143.697416 184.814696 
L 143.550936 184.288971 
L 143.500179 182.564374 
L 143.326107 182.147692 
L 143.14454 181.709081 
L 143.025312 180.622298 
L 142.722814 180.182468 
L 142.790263 180.178203 
L 143.732844 179.810866 
L 144.052375 179.459977 
L 144.868915 179.219349 
L 144.799422 179.061571 
L 144.404267 177.859653 
L 144.404948 177.859653 
L 144.496243 177.924835 
L 144.518385 177.926054 
L 144.383487 177.814573 
L 144.103131 177.584302 
L 143.780535 177.775585 
L 143.249801 178.176428 
L 143.232769 178.18252 
L 143.152375 178.125866 
L 142.813768 178.030224 
L 142.222739 178.272679 
L 141.929438 178.407917 
L 141.878 178.671694 
L 141.881066 178.671694 
L 141.974745 178.822771 
L 141.948174 178.915976 
L 141.852451 179.061571 
L 141.824177 178.938516 
L 141.591513 178.675349 
L 140.969825 178.10759 
L 140.055859 176.822214 
L 138.893899 176.690021 
L 138.188751 176.800283 
L 137.970394 176.850236 
L 137.919637 176.898971 
L 137.967669 176.763123 
L 137.588525 175.605066 
L 137.082658 174.410458 
L 136.91642 173.6636 
L 136.285535 172.235065 
L 135.219639 171.149501 
L 135.006391 170.682867 
L 135.102455 170.272278 
L 135.316383 169.488259 
L 135.216573 169.059394 
L 134.993446 168.715815 
L 134.248784 166.648857 
L 133.395113 165.390284 
L 133.222743 164.73724 
L 132.741744 162.422344 
L 132.263811 161.696807 
L 132.107112 161.367849 
L 131.930995 160.251825 
L 131.882623 159.872304 
L 130.60382 159.094377 
L 130.629709 158.237866 
L 130.686598 157.878448 
L 130.626643 157.193726 
L 130.288036 156.102679 
L 129.748445 154.809993 
L 129.209876 154.013791 
L 128.825963 153.74575 
L 128.566046 152.756437 
L 128.284328 152.032727 
L 127.640498 151.1354 
L 127.36423 150.574952 
L 127.001437 150.272797 
L 125.821422 148.930767 
L 125.144702 147.550261 
L 125.156472 147.610667 
L 125.138417 147.680114 
L 125.144702 147.550261 
L 125.271952 147.602748 
L 125.279106 147.604575 
L 125.263096 147.487612 
L 125.109803 147.219572 
L 123.197389 146.420933 
L 123.027745 145.939678 
L 122.473846 145.056363 
L 122.192128 144.399663 
L 121.969002 144.148071 
L 121.913816 143.806928 
L 121.619835 142.894981 
L 121.105452 142.263867 
L 120.68066 141.858761 
L 120.232704 141.694281 
L 119.477481 141.856933 
L 118.882364 141.863025 
L 118.391146 141.421367 
L 117.957497 141.361058 
L 117.855983 141.368977 
L 117.835885 141.311105 
L 117.702691 141.200234 
L 117.439027 141.030272 
L 117.365787 140.876148 
L 117.31503 140.91209 
L 116.80201 141.284301 
L 116.164652 141.364713 
L 115.874077 141.294048 
L 115.652654 140.790254 
L 115.422374 140.361998 
L 114.63513 140.089084 
L 114.0441 139.980649 
L 113.830853 139.759516 
L 113.216319 139.424465 
L 112.615411 138.947475 
L 111.942625 138.329763 
L 111.367947 137.931357 
L 110.681876 137.904553 
L 110.447509 137.864347 
L 110.14978 137.763832 
L 109.915753 137.716316 
L 109.418062 137.75043 
L 107.948494 137.517722 
L 107.546526 137.395885 
L 107.153415 137.351415 
L 105.348647 137.048042 
L 103.292478 136.79584 
L 103.001562 136.636843 
L 101.650882 137.061444 
L 101.350428 137.100432 
L 101.054402 136.904884 
L 100.871132 136.585672 
L 100.87011 136.402308 
L 100.207885 135.583566 
L 99.767083 134.741066 
L 99.485364 134.236662 
L 98.83404 133.779775 
L 98.741724 133.74627 
L 97.261596 132.452974 
L 97.156675 131.830998 
L 97.148159 131.63606 
L 96.414397 130.491405 
L 95.677569 130.384797 
L 94.716593 129.670226 
L 94.395359 129.619054 
L 93.625829 128.970884 
L 93.089645 128.442722 
L 92.025792 127.254206 
L 91.46474 126.313018 
L 89.364628 125.12572 
L 89.036921 125.449196 
L 88.203689 125.990151 
L 87.470268 126.118688 
L 86.084501 126.571311 
L 85.171897 126.41597 
L 84.664668 126.208848 
L 84.222844 126.05046 
L 83.484653 125.986496 
L 82.594192 126.009035 
L 82.28965 125.800695 
L 81.673072 125.14034 
L 81.30551 124.880219 
L 80.868795 124.503744 
L 80.330567 124.79737 
L 79.993323 124.703556 
L 79.695594 124.360586 
L 79.401612 124.140062 
L 78.912437 124.094373 
L 78.441317 124.24606 
L 77.972922 124.42455 
L 77.838025 124.230221 
L 77.921144 123.856183 
L 77.81963 123.400514 
L 77.4272 122.690815 
L 77.212249 122.579944 
L 77.197601 122.599438 
L 77.223831 122.657919 
L 77.413914 122.303375 
L 77.667699 122.050564 
L 78.382725 121.641193 
L 78.556457 121.206845 
L 78.556117 121.206845 
L 78.360583 121.163593 
L 77.928978 121.063078 
L 77.194876 120.801739 
L 77.17614 120.50994 
L 77.72016 118.615381 
L 77.660205 118.002542 
L 77.709599 117.447577 
L 77.900023 117.044297 
L 78.345254 116.598375 
L 78.372165 116.172556 
L 78.283596 115.339803 
L 77.954527 114.806159 
L 77.856761 114.455879 
L 77.972922 114.121437 
L 78.322771 113.458646 
L 78.215125 113.065114 
L 78.161643 112.638685 
L 78.191961 112.066053 
L 78.026745 111.384987 
L 78.095216 110.566854 
L 77.842113 109.968636 
L 77.619327 109.22726 
L 77.255852 108.239774 
L 77.011265 107.76583 
L 76.665504 107.152383 
L 76.708767 107.108521 
L 76.770766 107.148728 
L 76.828676 107.173704 
L 76.812325 107.078672 
L 76.834467 107.062833 
L 77.032045 106.856929 
L 77.031704 106.85632 
L 77.027276 106.72169 
L 77.106307 106.715598 
L 78.290201 106.215081 
L 78.217169 106.166115 
L 77.948055 106.083266 
L 77.419705 106.014429 
L 77.255171 106.038796 
L 76.786095 106.14784 
L 76.764634 106.154541 
L 76.833445 106.018693 
L 77.274248 105.741515 
L 78.097601 105.419257 
L 78.705322 104.554826 
L 78.696806 104.041894 
L 78.481514 103.506422 
L 78.030833 102.762609 
L 78.198774 102.281964 
L 78.449834 101.829341 
L 78.430757 101.404131 
L 78.473679 101.101976 
L 78.723036 100.88267 
L 78.899152 100.65179 
L 78.813989 100.440404 
L 78.540787 100.366083 
L 78.179357 100.235718 
L 77.999493 99.959149 
L 77.944308 99.477285 
L 77.965087 98.337504 
L 77.65237 97.920822 
L 76.832318 97.3914 
L 76.482575 97.144114 
L 75.526027 96.435025 
L 74.937383 96.195007 
L 74.939427 96.187697 
L 74.911493 95.997631 
L 74.911493 95.610191 
L 75.162212 95.049743 
L 75.292804 94.98431 
L 75.063764 95.033904 
L 75.107027 94.940699 
L 75.406459 94.569097 
L 75.697375 94.238311 
L 75.403393 93.228894 
L 75.487874 92.712916 
L 75.278034 91.702891 
L 75.065467 91.149753 
L 74.214522 89.536636 
L 73.85275 87.389875 
L 73.609526 87.146201 
L 72.754151 86.741704 
L 72.28235 86.160543 
L 71.982237 85.972306 
L 71.585038 85.689035 
L 71.637157 85.637255 
L 71.594576 85.277837 
L 71.574382 85.709358 
L 71.534962 85.690863 
L 71.504249 85.678021 
L 71.597642 85.802344 
L 71.581291 85.818182 
L 71.338406 85.86448 
L 71.338066 85.863871 
L 70.809035 85.944283 
L 70.411155 86.074648 
L 70.172018 86.153842 
L 69.588142 86.585144 
L 69.41952 86.670429 
L 68.780459 87.093202 
L 68.348514 87.091984 
L 67.908052 87.105386 
L 66.551921 87.707868 
L 65.897531 87.81874 
L 65.75582 87.947277 
L 65.565737 88.313396 
L 65.339204 88.563161 
L 64.657221 89.034669 
L 64.7819 89.162597 
L 64.881029 89.387995 
L 64.788031 89.590244 
L 64.340757 90.098303 
L 64.251166 90.321873 
L 64.331559 90.549098 
L 64.440227 91.012077 
L 64.334042 91.294842 
L 64.446358 90.779369 
L 64.271264 90.229886 
L 64.538334 89.811377 
L 64.861271 89.319157 
L 64.772361 88.752008 
L 65.56744 88.309741 
L 65.900597 87.81813 
L 67.422625 87.374036 
L 67.994237 87.076755 
L 68.971564 86.968929 
L 69.207635 86.805668 
L 70.115811 86.220852 
L 70.313729 86.083177 
L 71.160587 85.862653 
L 71.601048 85.787114 
L 71.589126 85.754827 
L 71.504249 85.678021 
L 71.636817 85.640301 
L 71.670541 85.435006 
L 71.75877 85.483132 
L 72.134167 85.661013 
L 72.451653 85.874836 
L 72.895181 86.268369 
L 73.016112 86.44625 
L 73.309412 86.626568 
L 73.646997 86.597327 
L 74.001274 86.43894 
L 74.213159 86.524835 
L 74.428791 86.58088 
L 75.442568 86.56565 
L 75.793779 86.415182 
L 76.351765 86.321977 
L 76.483938 86.275679 
L 76.913498 86.072821 
L 77.240523 86.121555 
L 77.225875 86.065511 
L 77.326026 85.716449 
L 77.330796 85.716449 
L 78.025723 85.65553 
L 78.328903 85.496534 
L 78.361946 85.143207 
L 78.468569 84.76856 
L 78.873263 84.588242 
L 79.809031 84.317155 
L 79.95517 83.852349 
L 80.026366 83.740259 
L 80.10165 83.796913 
L 80.241657 83.734776 
L 80.208955 83.658019 
L 80.022619 83.337589 
L 79.849227 82.737544 
L 79.853656 82.571846 
L 79.840711 82.563317 
L 79.539576 82.354977 
L 79.527653 82.139326 
L 79.633936 81.899308 
L 79.508917 81.653198 
L 79.117509 81.250528 
L 78.844648 80.903902 
L 78.252256 80.559105 
L 77.805663 80.479911 
L 77.806685 80.429349 
L 77.871749 80.395235 
L 77.910243 80.263651 
L 77.777389 79.948094 
L 77.70994 79.007516 
L 77.798509 78.849128 
L 77.823377 78.632259 
L 77.823036 78.293553 
L 77.757972 78.054753 
L 77.622052 77.585073 
L 77.454793 76.632311 
L 77.764785 75.577206 
L 77.821673 75.254948 
L 77.793399 75.041125 
L 77.800553 74.872381 
L 77.785564 74.196188 
L 77.797487 73.972008 
L 77.811795 73.582131 
L 77.694951 72.68785 
L 77.637041 72.409454 
L 76.808237 71.015034 
L 76.645406 70.856037 
L 76.226406 70.570939 
L 75.964445 70.293152 
L 76.034619 70.075064 
L 76.117397 69.759507 
L 76.530947 68.68369 
L 76.895444 67.981302 
L 77.209183 67.300235 
L 77.629887 66.857968 
L 77.596163 66.229291 
L 77.452067 65.65605 
L 77.745368 65.258254 
L 77.901726 64.992041 
L 77.833596 64.601554 
L 77.57402 63.961912 
L 77.441166 62.948231 
L 77.553581 62.654605 
L 77.721522 62.115478 
L 77.959296 61.020167 
L 78.030492 60.695472 
L 78.161302 60.378088 
L 78.391923 60.071669 
L 78.2962 59.466141 
L 78.200818 59.050069 
L 78.021295 58.607193 
L 78.036284 58.364129 
L 78.188214 58.108881 
L 78.433823 58.063192 
L 78.740749 58.099134 
L 78.976821 58.265441 
L 79.161453 58.399461 
L 79.532763 58.515815 
L 79.933709 58.713191 
L 80.051915 58.60902 
L 80.045102 58.587699 
L 80.088705 58.496931 
L 80.135715 58.283717 
L 80.00218 58.079031 
L 79.937797 58.210005 
L 79.795374 58.134704 
L 79.645518 57.937701 
L 79.944269 58.20696 
L 79.963005 58.186857 
L 80.006949 58.077813 
L 80.053958 58.264832 
L 80.058046 58.264832 
L 80.188856 58.359255 
L 80.180681 58.379968 
L 79.921445 58.716237 
L 79.724549 58.650445 
L 79.395821 58.428702 
L 78.970007 58.245947 
L 78.800704 58.103398 
L 78.062854 58.207569 
L 77.938517 58.582216 
L 77.901726 58.560286 
L 77.714028 58.535309 
L 76.986738 58.752788 
L 76.344952 59.226732 
L 75.753923 59.763422 
L 75.142114 59.673263 
L 74.309904 59.856627 
L 73.691963 59.62331 
L 72.975915 59.651333 
L 72.947791 59.606131 
L 73.070275 59.592851 
L 73.458277 59.516094 
L 72.946619 59.611127 
L 73.274325 59.661689 
L 74.186588 59.799973 
L 74.441736 59.86942 
L 75.105664 59.680573 
L 75.730077 59.756112 
L 75.93583 59.71286 
L 76.179055 59.51183 
L 76.78882 58.827717 
L 77.872771 58.537746 
L 77.899683 58.558458 
L 77.689842 58.540792 
L 76.359259 59.1981 
L 76.071069 59.618437 
L 75.748472 59.761595 
L 75.094423 59.681792 
L 74.098019 59.731745 
L 73.863311 59.642804 
L 73.511418 59.664125 
L 74.320123 59.867593 
L 74.420956 59.879167 
L 74.441736 59.86942 
L 75.105664 59.680573 
L 75.730077 59.756112 
L 75.93583 59.71286 
L 76.179055 59.51183 
L 76.78882 58.827717 
L 77.872771 58.537746 
L 78.012942 58.542029 
L 78.017548 58.496322 
L 78.121787 58.135685 
L 78.366034 58.07233 
L 78.849076 58.122283 
L 79.011908 58.310521 
L 79.268077 58.408599 
L 79.682649 58.612066 
L 80.082914 58.750351 
L 80.484201 58.815533 
L 81.162096 58.619986 
L 81.445517 58.322095 
L 81.673753 57.835967 
L 83.966674 56.322756 
L 84.783214 56.48419 
L 85.662775 56.164978 
L 86.049754 55.974913 
L 86.828823 55.595392 
L 87.418489 55.387051 
L 87.670571 55.437004 
L 88.270116 55.651437 
L 88.430222 55.555186 
L 88.78995 55.362684 
L 89.282531 55.282272 
L 89.636467 55.324305 
L 90.102477 55.305421 
L 90.469699 55.227445 
L 90.894831 55.102563 
L 91.287602 54.970979 
L 92.742862 54.647503 
L 93.324694 54.946003 
L 93.72053 54.596331 
L 94.259099 54.29905 
L 95.428894 54.151019 
L 95.797138 54.079135 
L 96.420188 54.190006 
L 96.794563 54.3289 
L 98.837446 54.333164 
L 99.095319 54.260062 
L 99.296984 54.186351 
L 99.505803 54.138835 
L 99.861102 53.537571 
L 100.639489 53.6058 
L 101.240057 53.660626 
L 102.12098 53.529652 
L 103.088088 54.155283 
L 103.296907 54.692582 
L 104.227224 55.434567 
L 105.778889 55.026415 
L 106.415565 55.136068 
L 107.235171 55.397407 
L 107.859925 55.588691 
L 108.338539 55.784848 
L 108.571885 55.93958 
L 108.703036 56.105278 
L 109.086268 56.04436 
L 109.650726 55.71601 
L 109.970938 55.70139 
L 110.359621 55.673367 
L 111.975328 55.688597 
L 112.517303 55.558841 
L 112.993874 55.458935 
L 114.2846 54.894222 
L 115.082064 54.539677 
L 115.824342 54.30636 
L 116.484864 54.20219 
L 116.879337 53.70997 
L 117.116771 53.569858 
L 118.920517 52.741978 
L 119.44546 52.603084 
L 119.554469 52.456881 
L 119.818473 52.213207 
L 120.717791 51.92811 
L 121.116353 51.925064 
L 121.452575 51.722815 
L 122.085845 51.106322 
L 122.3134 50.982048 
L 122.354619 50.68233 
L 122.354278 50.68233 
L 122.22449 50.218742 
L 122.089592 50.096296 
L 122.065406 50.10848 
L 121.687965 50.16087 
L 121.612681 50.025631 
L 121.065596 48.99733 
L 120.890161 48.754875 
L 120.648298 48.389974 
L 119.381077 48.014108 
L 118.091714 47.266032 
L 116.779186 47.067438 
L 115.850231 46.658676 
L 114.866091 46.355303 
L 113.842776 45.733327 
L 113.490202 45.174706 
L 113.370974 44.795185 
L 113.548794 44.348045 
L 113.552882 43.913088 
L 113.289899 43.571336 
L 112.986039 43.012106 
L 112.794934 42.282914 
L 110.972452 40.591213 
L 110.243459 40.538214 
L 109.890204 40.296368 
L 109.748153 40.251898 
L 108.572566 40.023454 
L 108.355231 40.083154 
L 108.192693 40.070708 
L 108.599818 39.990558 
L 108.603225 39.818159 
L 108.250992 39.410616 
L 108.113028 39.22847 
L 107.578547 38.607103 
L 107.195996 38.448716 
L 106.969464 38.041781 
L 106.659812 37.584894 
L 105.638541 36.65589 
L 105.32957 35.927307 
L 105.290736 34.727826 
L 105.062159 34.591978 
L 104.699026 34.702849 
L 104.338617 34.682746 
L 102.870752 34.382419 
L 102.305953 34.512175 
L 102.078399 34.403131 
L 101.703001 34.100976 
L 101.452623 33.882889 
L 101.250276 33.708662 
L 101.065303 33.562458 
L 100.803342 33.145777 
L 99.516704 32.097982 
L 98.946455 32.060822 
L 98.381996 31.96579 
L 98.223934 31.692876 
L 98.01239 31.188472 
L 96.653193 29.829385 
L 96.442671 29.368842 
L 96.314586 29.215328 
L 94.896797 28.505021 
L 93.777419 28.066409 
L 93.891537 27.844057 
L 94.028138 27.477938 
L 93.97193 27.042372 
L 93.713376 26.716459 
L 93.416669 26.442327 
L 93.303914 26.25348 
L 93.227268 25.831925 
L 91.986617 25.359808 
L 91.875565 25.211777 
L 91.405126 24.887082 
L 91.000092 24.331507 
L 90.141993 23.25569 
L 89.824847 23.038212 
L 89.202478 22.411971 
L 88.731698 22.151241 
L 88.62269 21.864925 
L 88.564779 21.565816 
L 87.96864 21.153399 
L 87.668016 21.00396 
L 87.644681 21.014505 
L 87.617089 21.00354 
L 86.803955 20.859773 
L 86.587301 20.759258 
L 85.861034 20.686156 
L 84.782192 20.341967 
L 84.143472 20.367553 
L 83.15865 20.084892 
L 82.329166 19.766289 
L 81.388629 19.479973 
L 81.172997 19.440376 
L 80.652141 19.434894 
L 80.507024 19.539673 
L 80.308765 19.533581 
L 79.501423 19.469617 
L 78.839879 19.492766 
L 77.067132 19.411745 
L 76.476443 19.707199 
L 75.432008 20.167132 
L 74.381441 20.479034 
L 73.719897 20.818348 
L 70.438748 21.69679 
L 69.454607 22.232262 
L 69.231822 22.249929 
L 68.994388 22.284043 
L 68.034434 22.644679 
L 64.415359 23.825276 
L 63.640038 23.632165 
L 62.13402 23.269701 
L 62.14935 23.248989 
L 62.283907 22.990086 
L 62.050902 23.224622 
L 62.041704 23.217921 
L 61.938487 23.263 
L 61.423423 23.637039 
L 60.723385 23.720497 
L 60.08228 23.936147 
L 54.120891 27.763645 
L 53.659309 28.027421 
L 53.295494 28.282669 
L 52.776682 28.412425 
L 52.526985 28.53548 
L 51.468242 29.419404 
L 50.652043 29.548551 
L 50.66635 29.52723 
L 50.625131 29.420013 
L 50.600605 29.414531 
L 49.89171 29.524793 
L 49.697199 29.543068 
L 49.543224 29.605814 
L 49.428425 29.703284 
L 49.465556 29.741053 
L 49.649167 29.937819 
L 49.562301 30.005438 
L 49.062907 31.044096 
L 49.027138 31.04105 
L 48.954239 31.060543 
L 48.751211 31.310918 
L 48.861241 31.469305 
L 48.963096 31.493673 
L 48.879637 31.593579 
L 47.620591 33.044653 
L 47.181151 33.613021 
L 46.638835 34.606598 
L 46.517223 34.959924 
L 46.145232 35.957157 
L 46.041334 37.084755 
L 46.075399 37.081709 
L 46.094816 37.092065 
L 46.049169 37.177351 
L 46.054278 37.19258 
L 46.21234 37.546516 
L 46.189857 37.91629 
L 46.197352 38.128895 
L 46.283536 38.270225 
L 46.362567 38.418866 
L 46.197352 38.128895 
L 46.177594 37.980863 
L 46.182363 37.461839 
L 45.944929 36.825852 
L 46.158177 35.699473 
L 45.946633 36.056454 
L 44.015824 38.736859 
L 43.625097 39.171816 
L 42.839897 40.350585 
L 42.063213 41.578089 
L 41.774341 42.008782 
L 41.435053 42.498565 
L 41.19796 42.884178 
L 40.786113 43.64322 
L 40.851518 43.931363 
L 41.01469 44.364493 
L 41.037854 44.389469 
L 40.903978 44.460744 
L 40.654962 44.64228 
L 40.634183 44.854885 
L 40.620557 45.189936 
L 40.631117 45.332485 
L 40.357574 46.509426 
L 39.761435 47.149068 
L 37.837099 49.486504 
L 36.514351 50.013447 
L 35.945805 50.271741 
L 35.533617 50.154169 
L 35.101672 50.409416 
L 34.840052 50.512977 
L 34.647244 50.665882 
L 34.449326 50.95098 
L 34.233013 51.112413 
L 33.736344 51.530922 
L 33.328244 51.978063 
L 33.003604 52.431904 
L 32.644898 52.97895 
L 32.269501 53.310346 
L 31.919993 53.444366 
L 31.739789 53.821451 
L 31.173968 54.540896 
L 30.874876 54.606688 
L 30.496754 54.769949 
L 30.519918 54.807109 
L 30.763824 55.152516 
L 30.277716 55.874398 
L 30.118972 56.233206 
L 30.068897 56.391594 
L 29.70951 57.018443 
L 29.456066 57.482032 
L 29.219995 58.029687 
L 28.783621 58.533482 
L 27.290548 60.612624 
L 26.936271 61.164543 
L 26.121775 62.182488 
L 25.840738 63.104791 
L 25.308301 63.913177 
L 25.300466 64.377375 
L 25.59581 65.292368 
L 26.151412 65.465985 
L 26.134379 65.49218 
L 25.878891 65.657878 
L 25.130141 65.907643 
L 22.443087 67.683411 
L 21.800278 68.41504 
L 21.568295 68.62399 
L 21.121021 68.74339 
L 20.961255 68.848779 
L 20.203989 69.807633 
L 20.001642 69.852103 
L 19.37757 70.308381 
L 18.7862 71.116158 
L 18.334837 71.747272 
L 15.68253 75.405416 
L 15.555467 75.683813 
L 15.543204 75.952462 
L 15.692068 76.462349 
L 15.553764 76.868065 
L 15.77689 77.03559 
L 16.187715 77.063612 
L 17.243051 77.340181 
L 17.223294 77.836057 
L 17.334346 78.097396 
L 18.003043 78.420263 
L 18.42511 78.618857 
L 18.867615 78.518342 
L 19.354065 78.433665 
L 20.23635 78.461078 
L 20.501377 78.73582 
L 20.696229 78.942942 
L 21.096153 79.586239 
L 21.385366 79.565527 
L 22.111293 79.359014 
L 22.83211 79.041021 
L 23.561784 79.151283 
L 23.872117 79.162857 
L 24.039717 79.254235 
L 24.202208 79.30967 
L 24.456674 79.419323 
L 24.633131 79.467449 
L 24.815379 79.4443 
L 25.072911 79.473541 
L 25.359058 79.385209 
L 26.507733 79.480242 
L 26.748232 79.368152 
L 27.590321 79.819557 
L 27.814469 79.857935 
L 28.159549 80.01084 
L 28.780896 80.423257 
L 29.037406 80.483566 
L 29.55247 80.83141 
L 30.30599 81.222505 
L 31.394369 81.787827 
L 31.821545 83.052491 
L 32.144482 83.735385 
L 31.896488 84.376855 
L 31.688691 84.792927 
L 31.692779 85.090209 
L 32.144482 85.289411 
L 32.35807 85.307078 
L 32.318895 85.367996 
L 32.113483 85.578773 
L 31.768063 86.402389 
L 31.400501 87.052387 
L 31.375633 87.891232 
L 31.463521 89.296008 
L 32.655799 90.885976 
L 32.798872 91.423276 
L 32.91776 91.516481 
L 33.11704 91.729695 
L 33.250235 92.101906 
L 33.324156 92.447312 
L 33.285663 92.743375 
L 33.201181 92.969382 
L 33.0438 93.074771 
L 33.116359 93.124115 
L 33.285322 93.280675 
L 33.617456 93.647403 
L 34.597168 94.291919 
L 36.357993 96.294304 
L 36.086153 96.521529 
L 35.52953 96.82612 
L 33.787782 98.519649 
L 33.558524 98.71337 
L 33.357199 98.851654 
L 33.000197 99.059995 
L 32.958297 99.334736 
L 32.874497 101.132436 
L 32.937517 101.469314 
L 33.11704 101.731263 
L 33.269311 102.037682 
L 33.393308 102.38918 
L 33.604852 102.79185 
L 33.460416 103.198175 
L 33.465186 103.327322 
L 33.51969 104.023009 
L 33.371166 104.344049 
L 33.32109 104.52985 
L 33.113293 104.928255 
L 33.114996 104.929474 
L 33.598721 105.600184 
L 33.787441 106.199011 
L 33.794595 106.425018 
L 33.491075 107.285794 
L 33.286003 107.478296 
L 33.285996 107.478046 
L 34.504852 109.590943 
L 34.839712 109.854719 
L 34.763406 110.003359 
L 34.626464 110.238504 
L 34.801899 110.657622 
L 34.890128 111.066384 
L 35.374193 112.611272 
L 35.717228 113.426359 
L 35.590847 114.101943 
L 35.684866 114.464407 
L 35.726426 114.728183 
L 35.721316 115.298379 
L 35.649098 115.552408 
L 35.504662 115.920355 
L 35.49853 117.207558 
L 35.649779 117.630941 
L 35.918553 118.238296 
L 36.027221 118.475878 
L 36.318136 118.592232 
L 36.565108 118.801181 
L 37.495426 120.749958 
L 37.489975 121.242178 
L 37.610566 122.175446 
L 38.052731 122.367948 
L 38.597431 122.710918 
L 38.655683 122.813261 
L 39.633691 123.787954 
L 39.976386 123.796483 
L 40.560602 123.982893 
L 41.032744 123.99995 
L 42.097619 124.351448 
L 42.277482 124.435516 
L 42.198792 124.498261 
L 41.471162 124.971597 
L 41.416566 125.230603 
L 41.257914 125.723938 
L 41.048755 126.060207 
L 41.634334 127.793942 
L 42.143266 128.454906 
L 42.387513 128.415309 
L 42.943114 128.216715 
L 43.411509 128.284943 
L 43.912606 128.291644 
L 45.231266 128.013857 
L 45.609048 128.407998 
L 45.991258 128.803358 
L 47.959879 129.006216 
L 48.278047 128.814933 
L 48.300189 128.281898 
L 48.346859 127.829275 
L 48.516162 127.779931 
L 49.193035 127.796988 
L 50.222142 127.946238 
L 50.659537 127.752517 
L 51.166766 127.525292 
L 51.36775 127.65383 
L 51.806168 127.893239 
L 52.762716 127.809781 
L 53.102685 127.999846 
L 53.451512 128.184428 
L 54.143373 128.504249 
L 54.525924 128.852093 
L 55.301586 129.210293 
L 55.841859 129.427771 
L 56.632169 129.715914 
L 57.402721 129.757339 
L 58.148746 129.81643 
L 59.314113 130.049138 
L 59.746739 129.946186 
L 61.30147 129.312635 
L 63.092612 128.870978 
L 63.634928 128.665683 
L 64.421832 128.626086 
L 65.378039 128.329414 
L 66.778454 127.828056 
L 67.780649 127.73546 
L 69.116341 127.654439 
L 70.813464 126.680355 
L 72.018005 125.602101 
L 73.095484 124.889357 
L 73.61157 124.936264 
L 74.048284 124.897886 
L 74.946921 124.704775 
L 75.806383 124.55187 
L 76.655285 124.304541 
L 77.744346 124.360586 
L 78.485943 124.203417 
L 78.902218 124.088281 
L 79.433633 124.143717 
L 79.70922 124.367896 
L 80.118342 124.756555 
L 80.475684 124.761429 
L 80.827577 124.528721 
L 80.972694 124.407493 
L 81.010506 124.488515 
L 81.476176 125.039216 
L 82.21096 125.6551 
L 82.480755 125.955427 
L 82.844911 126.043759 
L 83.489763 125.981013 
L 84.061375 126.015737 
L 84.624471 126.176561 
L 85.25229 126.424498 
L 86.604674 126.543289 
L 87.099299 126.331903 
L 87.831017 125.999898 
L 88.723863 125.712363 
L 89.462735 125.137904 
L 90.197519 125.460771 
L 90.974884 126.008426 
L 91.738283 126.620046 
L 92.351114 127.697082 
L 94.628024 129.693984 
L 94.904632 129.704949 
L 95.353951 130.057057 
L 96.012429 130.57669 
L 96.559855 130.568771 
L 96.77208 130.952556 
L 97.140324 131.855365 
L 97.092973 132.124015 
L 97.63018 132.893413 
L 98.955312 134.047206 
L 99.051375 134.445003 
L 99.846795 136.70629 
L 100.845243 137.523205 
L 101.338164 137.930748 
L 101.390625 138.251788 
L 101.553456 139.429339 
L 101.887293 139.848457 
L 101.959852 140.380273 
L 102.001071 140.864574 
L 102.203417 141.671741 
L 102.4664 141.921507 
L 102.524651 142.80604 
L 102.48718 143.106368 
L 102.595507 143.457866 
L 102.634 143.889168 
L 102.763447 144.336917 
L 102.732108 144.894929 
L 102.754591 145.217187 
L 103.210041 145.919575 
L 103.562614 146.28874 
L 103.718973 146.650595 
L 104.479987 147.460808 
L 105.058753 148.270412 
L 105.523741 148.834516 
L 105.687935 149.037374 
L 105.862348 149.231094 
L 105.844975 149.439435 
L 106.000312 149.717831 
L 106.321886 149.982826 
L 106.540925 149.98709 
L 106.844104 150.027906 
L 107.058714 150.116237 
L 107.042363 150.510988 
L 106.928926 151.378465 
L 106.75281 151.973636 
L 106.791303 152.605968 
L 106.607011 152.871572 
L 106.94664 153.888908 
L 107.524384 154.626019 
L 107.76829 155.083516 
L 108.284035 155.384452 
L 108.340583 155.708538 
L 108.460833 156.091714 
L 108.629455 156.503522 
L 108.870295 158.384679 
L 108.78888 158.788567 
L 109.119652 159.101688 
L 109.360151 159.182709 
L 109.755306 159.585988 
L 109.821052 159.686503 
L 109.812876 159.713917 
L 109.842513 159.969164 
L 110.053035 160.177505 
L 110.367456 160.288376 
L 111.402353 160.925582 
L 111.666017 161.026097 
L 112.607576 161.191795 
L 112.976501 161.366021 
L 113.343722 161.648682 
L 114.05432 162.51494 
L 114.227371 162.669064 
L 115.600534 163.250833 
L 116.492358 163.950785 
L 117.166847 164.531336 
L 118.040276 165.374446 
L 118.078088 165.554764 
L 117.970101 165.889814 
L 118.755642 167.517552 
L 118.357421 168.157803 
L 118.170745 168.559864 
L 117.697581 168.984465 
L 117.03229 169.268953 
L 116.729451 169.5175 
L 116.688914 169.819045 
L 116.827899 170.323449 
L 116.6712 171.030101 
L 116.853448 171.598469 
L 116.924644 172.025506 
L 116.833009 171.9853 
L 116.710375 171.985909 
L 116.708671 172.070586 
L 116.816998 172.422694 
L 117.096332 172.635908 
L 117.777634 173.210367 
L 117.702009 173.452213 
L 117.425401 173.654462 
L 117.671351 174.514019 
L 117.929564 174.712004 
L 117.982706 174.980044 
L 118.092395 175.385151 
L 118.31484 175.773201 
L 118.791411 176.428682 
L 119.072788 177.012888 
L 119.059844 177.207827 
L 119.212114 177.421041 
L 119.355188 177.395455 
L 119.405604 177.441144 
L 119.41923 177.486223 
L 119.612379 177.885848 
L 119.636906 178.156934 
L 119.683575 178.294 
L 119.5916 178.322023 
L 119.45057 178.34639 
L 119.726157 178.409745 
L 119.946217 178.824599 
L 120.766504 179.037204 
L 121.334369 179.05487 
L 121.628692 179.42769 
L 122.429562 179.593997 
L 123.211696 179.62141 
L 124.919038 180.07647 
L 124.874413 180.77764 
L 124.845458 181.800458 
L 124.856018 181.801067 
L 125.903519 181.911329 
L 126.104844 182.203737 
L 126.374299 182.545489 
L 126.837584 182.719106 
L 126.873693 182.72398 
L 126.867561 182.825713 
L 127.193905 183.310623 
L 127.266463 183.634708 
L 126.965668 184.017275 
L 126.715631 184.269477 
L 126.681566 184.597827 
L 126.959196 185.229549 
L 127.187092 186.011131 
L 127.261013 186.440605 
L 127.494699 186.900539 
L 127.703518 187.534089 
L 127.616652 188.140226 
L 127.567939 188.481369 
L 128.045532 189.163045 
L 128.847764 189.685724 
L 129.113472 189.764308 
L 129.304918 189.909294 
L 129.670096 190.117025 
L 129.643184 190.275413 
L 129.590724 190.723162 
L 129.742995 190.947342 
L 130.116689 191.179441 
L 130.210708 191.313461 
L 130.295531 191.814209 
L 130.38444 192.494667 
L 130.552041 193.334121 
L 130.641291 194.396536 
L 131.097423 195.583225 
L 131.588641 195.861622 
L 131.953138 196.269774 
L 132.093145 196.516493 
L 132.429367 196.718742 
L 132.446059 196.95876 
L 132.312865 197.521036 
L 132.572781 197.997417 
L 132.830314 198.574923 
L 133.013243 198.932514 
L 132.9802 200.017469 
L 133.440419 201.668355 
L 133.633909 202.145345 
L 134.040646 202.200172 
L 134.300903 202.341502 
L 134.467822 202.868445 
L 134.814264 203.107854 
L 135.50817 203.682923 
L 135.741175 204.043559 
L 136.070244 204.306727 
L 136.430652 204.526032 
L 136.515134 204.901898 
L 136.731788 208.306623 
L 136.681712 208.920679 
L 136.647988 208.913978 
L 136.634021 209.019367 
L 136.73281 209.143031 
L 136.803324 209.287407 
L 136.808434 209.765616 
L 137.187579 216.717613 
L 137.144316 217.14526 
L 137.180084 217.544275 
L 137.862749 218.931385 
L 138.080424 219.257907 
L 138.339319 219.602704 
L 138.753891 220.007202 
L 140.210855 222.429923 
L 140.298743 222.81249 
L 140.426487 222.710147 
L 140.458167 222.821019 
L 140.560495 222.999168 
L 140.406048 222.739388 
L 140.318841 222.799697 
L 140.255139 222.95382 
L 140.373686 223.32725 
L 140.687085 223.601991 
L 141.000484 223.97603 
L 142.716342 227.113322 
L 144.739808 232.359607 
L 145.607105 234.132939 
L 145.601995 234.731157 
L 145.625841 235.504819 
L 146.008051 236.360721 
L 146.298626 237.184337 
L 146.469633 238.654296 
L 146.757142 240.794965 
L 147.003092 241.428515 
L 147.246658 241.855553 
L 147.34204 242.579871 
L 147.234735 243.235352 
L 147.072926 243.85611 
L 146.842986 246.261774 
L 146.592267 246.606572 
L 146.607256 247.134733 
L 147.848928 249.741428 
L 148.166074 252.557681 
L 148.213425 253.676141 
L 148.447452 253.903976 
L 148.70294 254.162269 
L 149.055514 255.068734 
L 149.690487 255.377589 
L 149.936096 255.783305 
L 150.386096 257.090003 
L 150.284582 257.49511 
L 149.850933 258.386345 
L 149.914294 259.317176 
L 150.172848 259.62055 
L 150.515884 260.193791 
L 151.269403 260.404568 
L 152.022242 260.348523 
L 153.472392 260.258364 
L 155.931892 260.486808 
L 156.907856 260.908972 
L 158.142716 261.17153 
L 159.514857 261.206862 
L 160.404978 261.05944 
L 161.106037 260.668954 
L 162.156605 259.953163 
L 162.862774 259.53039 
L 163.517505 258.88222 
L 164.685597 257.534098 
L 165.42038 257.227678 
L 167.772915 256.51798 
L 168.506336 256.142723 
L 170.583625 255.632837 
L 171.174995 255.768685 
L 172.755615 256.185366 
L 173.66379 256.372995 
L 174.459891 257.362917 
L 175.086348 258.137189 
L 175.617082 258.394873 
L 176.253077 258.450309 
L 176.922456 258.372943 
L 177.554023 258.585547 
L 178.657732 258.935219 
L 181.042288 258.212118 
L 181.594823 257.825896 
L 181.524309 257.177725 
L 181.473211 256.819526 
L 181.423476 256.826836 
L 181.047398 256.87618 
L 181.042969 256.767136 
L 181.017761 256.496659 
L 180.957595 256.5042 
" clip-path="url(#p39af4da5ed)" style="fill: none; stroke: #808080; stroke-width: 1.5; stroke-linecap: square"/>
   </g>
   <g id="text_1">
    <!-- Hull -->
    <g transform="translate(182.610985 255.847879) scale(0.1 -0.1)">
     <defs>
      <path id="DejaVuSans-48" d="M 628 4666 
L 1259 4666 
L 1259 2753 
L 3553 2753 
L 3553 4666 
L 4184 4666 
L 4184 0 
L 3553 0 
L 3553 2222 
L 1259 2222 
L 1259 0 
L 628 0 
L 628 4666 
z
" transform="scale(0.015625)"/>
      <path id="DejaVuSans-75" d="M 544 1381 
L 544 3500 
L 1119 3500 
L 1119 1403 
Q 1119 906 1312 657 
Q 1506 409 1894 409 
Q 2359 409 2629 706 
Q 2900 1003 2900 1516 
L 2900 3500 
L 3475 3500 
L 3475 0 
L 2900 0 
L 2900 538 
Q 2691 219 2414 64 
Q 2138 -91 1772 -91 
Q 1169 -91 856 284 
Q 544 659 544 1381 
z
M 1991 3584 
L 1991 3584 
z
" transform="scale(0.015625)"/>
      <path id="DejaVuSans-6c" d="M 603 4863 
L 1178 4863 
L 1178 0 
L 603 0 
L 603 4863 
z
" transform="scale(0.015625)"/>
     </defs>
     <use xlink:href="#DejaVuSans-48"/>
     <use xlink:href="#DejaVuSans-75" x="75.195312"/>
     <use xlink:href="#DejaVuSans-6c" x="138.574219"/>
     <use xlink:href="#DejaVuSans-6c" x="166.357422"/>
    </g>
   </g>
   <g id="text_2">
    <!-- Newcastle -->
    <g transform="translate(145.466416 182.094084) scale(0.1 -0.1)">
     <defs>
      <path id="DejaVuSans-4e" d="M 628 4666 
L 1478 4666 
L 3547 763 
L 3547 4666 
L 4159 4666 
L 4159 0 
L 3309 0 
L 1241 3903 
L 1241 0 
L 628 0 
L 628 4666 
z
" transform="scale(0.015625)"/>
      <path id="DejaVuSans-65" d="M 3597 1894 
L 3597 1613 
L 953 1613 
Q 991 1019 1311 708 
Q 1631 397 2203 397 
Q 2534 397 2845 478 
Q 3156 559 3463 722 
L 3463 178 
Q 3153 47 2828 -22 
Q 2503 -91 2169 -91 
Q 1331 -91 842 396 
Q 353 884 353 1716 
Q 353 2575 817 3079 
Q 1281 3584 2069 3584 
Q 2775 3584 3186 3129 
Q 3597 2675 3597 1894 
z
M 3022 2063 
Q 3016 2534 2758 2815 
Q 2500 3097 2075 3097 
Q 1594 3097 1305 2825 
Q 1016 2553 972 2059 
L 3022 2063 
z
" transform="scale(0.015625)"/>
      <path id="DejaVuSans-77" d="M 269 3500 
L 844 3500 
L 1563 769 
L 2278 3500 
L 2956 3500 
L 3675 769 
L 4391 3500 
L 4966 3500 
L 4050 0 
L 3372 0 
L 2619 2869 
L 1863 0 
L 1184 0 
L 269 3500 
z
" transform="scale(0.015625)"/>
      <path id="DejaVuSans-63" d="M 3122 3366 
L 3122 2828 
Q 2878 2963 2633 3030 
Q 2388 3097 2138 3097 
Q 1578 3097 1268 2742 
Q 959 2388 959 1747 
Q 959 1106 1268 751 
Q 1578 397 2138 397 
Q 2388 397 2633 464 
Q 2878 531 3122 666 
L 3122 134 
Q 2881 22 2623 -34 
Q 2366 -91 2075 -91 
Q 1284 -91 818 406 
Q 353 903 353 1747 
Q 353 2603 823 3093 
Q 1294 3584 2113 3584 
Q 2378 3584 2631 3529 
Q 2884 3475 3122 3366 
z
" transform="scale(0.015625)"/>
      <path id="DejaVuSans-61" d="M 2194 1759 
Q 1497 1759 1228 1600 
Q 959 1441 959 1056 
Q 959 750 1161 570 
Q 1363 391 1709 391 
Q 2188 391 2477 730 
Q 2766 1069 2766 1631 
L 2766 1759 
L 2194 1759 
z
M 3341 1997 
L 3341 0 
L 2766 0 
L 2766 531 
Q 2569 213 2275 61 
Q 1981 -91 1556 -91 
Q 1019 -91 701 211 
Q 384 513 384 1019 
Q 384 1609 779 1909 
Q 1175 2209 1959 2209 
L 2766 2209 
L 2766 2266 
Q 2766 2663 2505 2880 
Q 2244 3097 1772 3097 
Q 1472 3097 1187 3025 
Q 903 2953 641 2809 
L 641 3341 
Q 956 3463 1253 3523 
Q 1550 3584 1831 3584 
Q 2591 3584 2966 3190 
Q 3341 2797 3341 1997 
z
" transform="scale(0.015625)"/>
      <path id="DejaVuSans-73" d="M 2834 3397 
L 2834 2853 
Q 2591 2978 2328 3040 
Q 2066 3103 1784 3103 
Q 1356 3103 1142 2972 
Q 928 2841 928 2578 
Q 928 2378 1081 2264 
Q 1234 2150 1697 2047 
L 1894 2003 
Q 2506 1872 2764 1633 
Q 3022 1394 3022 966 
Q 3022 478 2636 193 
Q 2250 -91 1575 -91 
Q 1294 -91 989 -36 
Q 684 19 347 128 
L 347 722 
Q 666 556 975 473 
Q 1284 391 1588 391 
Q 1994 391 2212 530 
Q 2431 669 2431 922 
Q 2431 1156 2273 1281 
Q 2116 1406 1581 1522 
L 1381 1569 
Q 847 1681 609 1914 
Q 372 2147 372 2553 
Q 372 3047 722 3315 
Q 1072 3584 1716 3584 
Q 2034 3584 2315 3537 
Q 2597 3491 2834 3397 
z
" transform="scale(0.015625)"/>
      <path id="DejaVuSans-74" d="M 1172 4494 
L 1172 3500 
L 2356 3500 
L 2356 3053 
L 1172 3053 
L 1172 1153 
Q 1172 725 1289 603 
Q 1406 481 1766 481 
L 2356 481 
L 2356 0 
L 1766 0 
Q 1100 0 847 248 
Q 594 497 594 1153 
L 594 3053 
L 172 3053 
L 172 3500 
L 594 3500 
L 594 4494 
L 1172 4494 
z
" transform="scale(0.015625)"/>
     </defs>
     <use xlink:href="#DejaVuSans-4e"/>
     <use xlink:href="#DejaVuSans-65" x="74.804688"/>
     <use xlink:href="#DejaVuSans-77" x="136.328125"/>
     <use xlink:href="#DejaVuSans-63" x="218.115234"/>
     <use xlink:href="#DejaVuSans-61" x="273.095703"/>
     <use xlink:href="#DejaVuSans-73" x="334.375"/>
     <use xlink:href="#DejaVuSans-74" x="386.474609"/>
     <use xlink:href="#DejaVuSans-6c" x="425.683594"/>
     <use xlink:href="#DejaVuSans-65" x="453.466797"/>
    </g>
   </g>
   <g id="text_3">
    <!-- Edinburgh -->
    <g transform="translate(85.154183 122.698735) scale(0.1 -0.1)">
     <defs>
      <path id="DejaVuSans-45" d="M 628 4666 
L 3578 4666 
L 3578 4134 
L 1259 4134 
L 1259 2753 
L 3481 2753 
L 3481 2222 
L 1259 2222 
L 1259 531 
L 3634 531 
L 3634 0 
L 628 0 
L 628 4666 
z
" transform="scale(0.015625)"/>
      <path id="DejaVuSans-64" d="M 2906 2969 
L 2906 4863 
L 3481 4863 
L 3481 0 
L 2906 0 
L 2906 525 
Q 2725 213 2448 61 
Q 2172 -91 1784 -91 
Q 1150 -91 751 415 
Q 353 922 353 1747 
Q 353 2572 751 3078 
Q 1150 3584 1784 3584 
Q 2172 3584 2448 3432 
Q 2725 3281 2906 2969 
z
M 947 1747 
Q 947 1113 1208 752 
Q 1469 391 1925 391 
Q 2381 391 2643 752 
Q 2906 1113 2906 1747 
Q 2906 2381 2643 2742 
Q 2381 3103 1925 3103 
Q 1469 3103 1208 2742 
Q 947 2381 947 1747 
z
" transform="scale(0.015625)"/>
      <path id="DejaVuSans-69" d="M 603 3500 
L 1178 3500 
L 1178 0 
L 603 0 
L 603 3500 
z
M 603 4863 
L 1178 4863 
L 1178 4134 
L 603 4134 
L 603 4863 
z
" transform="scale(0.015625)"/>
      <path id="DejaVuSans-6e" d="M 3513 2113 
L 3513 0 
L 2938 0 
L 2938 2094 
Q 2938 2591 2744 2837 
Q 2550 3084 2163 3084 
Q 1697 3084 1428 2787 
Q 1159 2491 1159 1978 
L 1159 0 
L 581 0 
L 581 3500 
L 1159 3500 
L 1159 2956 
Q 1366 3272 1645 3428 
Q 1925 3584 2291 3584 
Q 2894 3584 3203 3211 
Q 3513 2838 3513 2113 
z
" transform="scale(0.015625)"/>
      <path id="DejaVuSans-62" d="M 3116 1747 
Q 3116 2381 2855 2742 
Q 2594 3103 2138 3103 
Q 1681 3103 1420 2742 
Q 1159 2381 1159 1747 
Q 1159 1113 1420 752 
Q 1681 391 2138 391 
Q 2594 391 2855 752 
Q 3116 1113 3116 1747 
z
M 1159 2969 
Q 1341 3281 1617 3432 
Q 1894 3584 2278 3584 
Q 2916 3584 3314 3078 
Q 3713 2572 3713 1747 
Q 3713 922 3314 415 
Q 2916 -91 2278 -91 
Q 1894 -91 1617 61 
Q 1341 213 1159 525 
L 1159 0 
L 581 0 
L 581 4863 
L 1159 4863 
L 1159 2969 
z
" transform="scale(0.015625)"/>
      <path id="DejaVuSans-72" d="M 2631 2963 
Q 2534 3019 2420 3045 
Q 2306 3072 2169 3072 
Q 1681 3072 1420 2755 
Q 1159 2438 1159 1844 
L 1159 0 
L 581 0 
L 581 3500 
L 1159 3500 
L 1159 2956 
Q 1341 3275 1631 3429 
Q 1922 3584 2338 3584 
Q 2397 3584 2469 3576 
Q 2541 3569 2628 3553 
L 2631 2963 
z
" transform="scale(0.015625)"/>
      <path id="DejaVuSans-67" d="M 2906 1791 
Q 2906 2416 2648 2759 
Q 2391 3103 1925 3103 
Q 1463 3103 1205 2759 
Q 947 2416 947 1791 
Q 947 1169 1205 825 
Q 1463 481 1925 481 
Q 2391 481 2648 825 
Q 2906 1169 2906 1791 
z
M 3481 434 
Q 3481 -459 3084 -895 
Q 2688 -1331 1869 -1331 
Q 1566 -1331 1297 -1286 
Q 1028 -1241 775 -1147 
L 775 -588 
Q 1028 -725 1275 -790 
Q 1522 -856 1778 -856 
Q 2344 -856 2625 -561 
Q 2906 -266 2906 331 
L 2906 616 
Q 2728 306 2450 153 
Q 2172 0 1784 0 
Q 1141 0 747 490 
Q 353 981 353 1791 
Q 353 2603 747 3093 
Q 1141 3584 1784 3584 
Q 2172 3584 2450 3431 
Q 2728 3278 2906 2969 
L 2906 3500 
L 3481 3500 
L 3481 434 
z
" transform="scale(0.015625)"/>
      <path id="DejaVuSans-68" d="M 3513 2113 
L 3513 0 
L 2938 0 
L 2938 2094 
Q 2938 2591 2744 2837 
Q 2550 3084 2163 3084 
Q 1697 3084 1428 2787 
Q 1159 2491 1159 1978 
L 1159 0 
L 581 0 
L 581 4863 
L 1159 4863 
L 1159 2956 
Q 1366 3272 1645 3428 
Q 1925 3584 2291 3584 
Q 2894 3584 3203 3211 
Q 3513 2838 3513 2113 
z
" transform="scale(0.015625)"/>
     </defs>
     <use xlink:href="#DejaVuSans-45"/>
     <use xlink:href="#DejaVuSans-64" x="63.183594"/>
     <use xlink:href="#DejaVuSans-69" x="126.660156"/>
     <use xlink:href="#DejaVuSans-6e" x="154.443359"/>
     <use xlink:href="#DejaVuSans-62" x="217.822266"/>
     <use xlink:href="#DejaVuSans-75" x="281.298828"/>
     <use xlink:href="#DejaVuSans-72" x="344.677734"/>
     <use xlink:href="#DejaVuSans-67" x="384.041016"/>
     <use xlink:href="#DejaVuSans-68" x="447.517578"/>
    </g>
   </g>
   <g id="text_4">
    <!-- Aberdeen -->
    <g transform="translate(125.844927 49.803888) scale(0.1 -0.1)">
     <defs>
      <path id="DejaVuSans-41" d="M 2188 4044 
L 1331 1722 
L 3047 1722 
L 2188 4044 
z
M 1831 4666 
L 2547 4666 
L 4325 0 
L 3669 0 
L 3244 1197 
L 1141 1197 
L 716 0 
L 50 0 
L 1831 4666 
z
" transform="scale(0.015625)"/>
     </defs>
     <use xlink:href="#DejaVuSans-41"/>
     <use xlink:href="#DejaVuSans-62" x="68.408203"/>
     <use xlink:href="#DejaVuSans-65" x="131.884766"/>
     <use xlink:href="#DejaVuSans-72" x="193.408203"/>
     <use xlink:href="#DejaVuSans-64" x="232.771484"/>
     <use xlink:href="#DejaVuSans-65" x="296.248047"/>
     <use xlink:href="#DejaVuSans-65" x="357.771484"/>
     <use xlink:href="#DejaVuSans-6e" x="419.294922"/>
    </g>
   </g>
   <g id="text_5">
    <!-- Inverness -->
    <g transform="translate(54.958892 15.817565) scale(0.1 -0.1)">
     <defs>
      <path id="DejaVuSans-49" d="M 628 4666 
L 1259 4666 
L 1259 0 
L 628 0 
L 628 4666 
z
" transform="scale(0.015625)"/>
      <path id="DejaVuSans-76" d="M 191 3500 
L 800 3500 
L 1894 563 
L 2988 3500 
L 3597 3500 
L 2284 0 
L 1503 0 
L 191 3500 
z
" transform="scale(0.015625)"/>
     </defs>
     <use xlink:href="#DejaVuSans-49"/>
     <use xlink:href="#DejaVuSans-6e" x="29.492188"/>
     <use xlink:href="#DejaVuSans-76" x="92.871094"/>
     <use xlink:href="#DejaVuSans-65" x="152.050781"/>
     <use xlink:href="#DejaVuSans-72" x="213.574219"/>
     <use xlink:href="#DejaVuSans-6e" x="252.9375"/>
     <use xlink:href="#DejaVuSans-65" x="316.316406"/>
     <use xlink:href="#DejaVuSans-73" x="377.839844"/>
     <use xlink:href="#DejaVuSans-73" x="429.939453"/>
    </g>
   </g>
   <g id="text_6">
    <!-- Glasgow -->
    <g transform="translate(31.671999 140.462513) scale(0.1 -0.1)">
     <defs>
      <path id="DejaVuSans-47" d="M 3809 666 
L 3809 1919 
L 2778 1919 
L 2778 2438 
L 4434 2438 
L 4434 434 
Q 4069 175 3628 42 
Q 3188 -91 2688 -91 
Q 1594 -91 976 548 
Q 359 1188 359 2328 
Q 359 3472 976 4111 
Q 1594 4750 2688 4750 
Q 3144 4750 3555 4637 
Q 3966 4525 4313 4306 
L 4313 3634 
Q 3963 3931 3569 4081 
Q 3175 4231 2741 4231 
Q 1884 4231 1454 3753 
Q 1025 3275 1025 2328 
Q 1025 1384 1454 906 
Q 1884 428 2741 428 
Q 3075 428 3337 486 
Q 3600 544 3809 666 
z
" transform="scale(0.015625)"/>
      <path id="DejaVuSans-6f" d="M 1959 3097 
Q 1497 3097 1228 2736 
Q 959 2375 959 1747 
Q 959 1119 1226 758 
Q 1494 397 1959 397 
Q 2419 397 2687 759 
Q 2956 1122 2956 1747 
Q 2956 2369 2687 2733 
Q 2419 3097 1959 3097 
z
M 1959 3584 
Q 2709 3584 3137 3096 
Q 3566 2609 3566 1747 
Q 3566 888 3137 398 
Q 2709 -91 1959 -91 
Q 1206 -91 779 398 
Q 353 888 353 1747 
Q 353 2609 779 3096 
Q 1206 3584 1959 3584 
z
" transform="scale(0.015625)"/>
     </defs>
     <use xlink:href="#DejaVuSans-47"/>
     <use xlink:href="#DejaVuSans-6c" x="77.490234"/>
     <use xlink:href="#DejaVuSans-61" x="105.273438"/>
     <use xlink:href="#DejaVuSans-73" x="166.552734"/>
     <use xlink:href="#DejaVuSans-67" x="218.652344"/>
     <use xlink:href="#DejaVuSans-6f" x="282.128906"/>
     <use xlink:href="#DejaVuSans-77" x="343.310547"/>
    </g>
   </g>
  </g>
 </g>
 <defs>
  <clipPath id="p39af4da5ed">
   <rect x="7.2" y="7.2" width="182.741093" height="266.112"/>
  </clipPath>
 </defs>
</svg>
