<?xml version="1.0" encoding="UTF-8"?>
<svg xmlns="http://www.w3.org/2000/svg" xmlns:xlink="http://www.w3.org/1999/xlink" width="100" height="100" viewBox="0 0 100 100" version="1.1">
<path d="M 9.375 12.5 C 4.199219 12.5 0 16.699219 0 21.875 C 0 24.824219 1.386719 27.597656 3.75 29.375 L 46.25 61.25 C 48.476562 62.910156 51.523438 62.910156 53.75 61.25 L 96.25 29.375 C 98.613281 27.597656 100 24.824219 100 21.875 C 100 16.699219 95.800781 12.5 90.625 12.5 Z M 0 34.375 L 0 75 C 0 81.894531 5.605469 87.5 12.5 87.5 L 87.5 87.5 C 94.394531 87.5 100 81.894531 100 75 L 100 34.375 L 57.5 66.25 C 53.046875 69.589844 46.953125 69.589844 42.5 66.25 Z M 0 34.375 "/>
</svg>
