<?xml version="1.0" encoding="UTF-8"?>
<svg xmlns="http://www.w3.org/2000/svg" xmlns:xlink="http://www.w3.org/1999/xlink" width="100" height="100" viewBox="0 0 100 100" version="1.1">
<path d="M 33.449219 77.617188 C 33.449219 78.007812 32.984375 78.320312 32.398438 78.320312 C 31.734375 78.378906 31.269531 78.066406 31.269531 77.617188 C 31.269531 77.226562 31.734375 76.914062 32.320312 76.914062 C 32.921875 76.855469 33.449219 77.167969 33.449219 77.617188 Z M 27.175781 76.738281 C 27.035156 77.128906 27.441406 77.578125 28.042969 77.695312 C 28.570312 77.890625 29.171875 77.695312 29.292969 77.304688 C 29.414062 76.914062 29.03125 76.464844 28.425781 76.289062 C 27.902344 76.152344 27.320312 76.347656 27.175781 76.738281 Z M 36.089844 76.40625 C 35.503906 76.542969 35.101562 76.914062 35.160156 77.363281 C 35.222656 77.753906 35.746094 78.007812 36.351562 77.871094 C 36.933594 77.734375 37.339844 77.363281 37.277344 76.972656 C 37.21875 76.601562 36.671875 76.347656 36.089844 76.40625 Z M 49.355469 1.5625 C 21.390625 1.5625 0 22.128906 0 49.21875 C 0 70.878906 14.074219 89.414062 34.171875 95.9375 C 36.753906 96.386719 37.660156 94.84375 37.660156 93.574219 C 37.660156 92.363281 37.601562 85.683594 37.601562 81.582031 C 37.601562 81.582031 23.488281 84.511719 20.523438 75.761719 C 20.523438 75.761719 18.226562 70.078125 14.917969 68.613281 C 14.917969 68.613281 10.300781 65.546875 15.242188 65.605469 C 15.242188 65.605469 20.261719 65.996094 23.023438 70.644531 C 27.441406 78.183594 34.839844 76.015625 37.722656 74.726562 C 38.183594 71.601562 39.496094 69.433594 40.949219 68.144531 C 29.675781 66.933594 18.304688 65.351562 18.304688 46.5625 C 18.304688 41.191406 19.839844 38.496094 23.066406 35.058594 C 22.539062 33.789062 20.828125 28.554688 23.589844 21.796875 C 27.800781 20.527344 37.5 27.070312 37.5 27.070312 C 41.53125 25.976562 45.867188 25.410156 50.160156 25.410156 C 54.457031 25.410156 58.789062 25.976562 62.824219 27.070312 C 62.824219 27.070312 72.519531 20.507812 76.734375 21.796875 C 79.496094 28.574219 77.78125 33.789062 77.257812 35.058594 C 80.484375 38.515625 82.460938 41.210938 82.460938 46.5625 C 82.460938 65.410156 70.585938 66.914062 59.316406 68.144531 C 61.167969 69.6875 62.742188 72.617188 62.742188 77.207031 C 62.742188 83.789062 62.679688 91.933594 62.679688 93.535156 C 62.679688 94.804688 63.609375 96.347656 66.167969 95.898438 C 86.332031 89.414062 100 70.878906 100 49.21875 C 100 22.128906 77.320312 1.5625 49.355469 1.5625 Z M 19.597656 68.925781 C 19.335938 69.121094 19.394531 69.570312 19.738281 69.941406 C 20.058594 70.253906 20.523438 70.390625 20.785156 70.136719 C 21.046875 69.941406 20.988281 69.492188 20.644531 69.121094 C 20.324219 68.808594 19.859375 68.671875 19.597656 68.925781 Z M 17.417969 67.34375 C 17.277344 67.597656 17.480469 67.910156 17.882812 68.105469 C 18.207031 68.300781 18.609375 68.242188 18.75 67.96875 C 18.890625 67.714844 18.691406 67.402344 18.285156 67.207031 C 17.882812 67.089844 17.558594 67.148438 17.417969 67.34375 Z M 23.953125 74.296875 C 23.628906 74.550781 23.75 75.136719 24.214844 75.507812 C 24.675781 75.957031 25.261719 76.015625 25.523438 75.703125 C 25.785156 75.449219 25.664062 74.863281 25.261719 74.492188 C 24.820312 74.042969 24.214844 73.984375 23.953125 74.296875 Z M 21.652344 71.425781 C 21.332031 71.621094 21.332031 72.128906 21.652344 72.578125 C 21.976562 73.027344 22.519531 73.222656 22.78125 73.027344 C 23.105469 72.773438 23.105469 72.265625 22.78125 71.816406 C 22.5 71.367188 21.976562 71.171875 21.652344 71.425781 Z M 21.652344 71.425781 "/>
</svg>
