<?xml version="1.0" encoding="UTF-8"?>
<svg xmlns="http://www.w3.org/2000/svg" xmlns:xlink="http://www.w3.org/1999/xlink" width="100" height="100" viewBox="0 0 100 100" version="1.1">
<path d="M 71.953125 3.574219 L 61.074219 14.472656 L 85.527344 38.925781 L 96.40625 28.046875 C 100.683594 23.769531 100.683594 16.855469 96.40625 12.578125 L 87.421875 3.574219 C 83.144531 -0.703125 76.230469 -0.703125 71.953125 3.574219 Z M 56.25 18.476562 L 54.453125 19.023438 L 26.308594 27.460938 C 22.421875 28.632812 19.335938 31.601562 18.046875 35.46875 L 0.742188 87.070312 C 0 89.277344 0.546875 91.738281 2.167969 93.398438 L 32.167969 63.417969 C 31.582031 62.1875 31.25 60.820312 31.25 59.375 C 31.25 54.199219 35.449219 50 40.625 50 C 45.800781 50 50 54.199219 50 59.375 C 50 64.550781 45.800781 68.75 40.625 68.75 C 39.179688 68.75 37.8125 68.417969 36.582031 67.832031 L 6.582031 97.832031 C 8.261719 99.453125 10.703125 100.019531 12.910156 99.257812 L 64.53125 81.953125 C 68.378906 80.664062 71.367188 77.578125 72.539062 73.691406 L 80.976562 45.546875 L 81.523438 43.75 Z M 56.25 18.476562 "/>
</svg>
