<?xml version="1.0" encoding="UTF-8"?>
<svg xmlns="http://www.w3.org/2000/svg" xmlns:xlink="http://www.w3.org/1999/xlink" width="100" height="100" viewBox="0 0 100 100" version="1.1">
<path d="M 89.71875 29.632812 C 89.785156 30.519531 89.785156 31.410156 89.785156 32.296875 C 89.785156 59.390625 69.164062 90.609375 31.472656 90.609375 C 19.859375 90.609375 9.074219 87.246094 0 81.410156 C 1.648438 81.597656 3.234375 81.664062 4.949219 81.664062 C 14.53125 81.664062 23.351562 78.425781 30.394531 72.90625 C 21.382812 72.714844 13.832031 66.816406 11.230469 58.691406 C 12.5 58.882812 13.769531 59.011719 15.101562 59.011719 C 16.941406 59.011719 18.78125 58.757812 20.496094 58.3125 C 11.105469 56.410156 4.0625 48.160156 4.0625 38.199219 L 4.0625 37.945312 C 6.789062 39.46875 9.960938 40.417969 13.324219 40.546875 C 7.804688 36.867188 4.1875 30.582031 4.1875 23.476562 C 4.1875 19.671875 5.203125 16.179688 6.980469 13.132812 C 17.070312 25.570312 32.234375 33.691406 49.238281 34.582031 C 48.921875 33.058594 48.730469 31.472656 48.730469 29.886719 C 48.730469 18.589844 57.867188 9.390625 69.226562 9.390625 C 75.125 9.390625 80.457031 11.867188 84.199219 15.863281 C 88.832031 14.976562 93.273438 13.261719 97.207031 10.914062 C 95.683594 15.671875 92.449219 19.671875 88.199219 22.207031 C 92.320312 21.765625 96.320312 20.621094 100 19.035156 C 97.207031 23.097656 93.71875 26.714844 89.722656 29.632812 Z M 89.71875 29.632812 "/>
</svg>
