<svg xmlns="http://www.w3.org/2000/svg" xml:space="preserve" width="512" height="512" viewBox="0 0 135.47 135.47"><path d="m0 0H512V512H0" fill="#fff"/><path fill="#212529" d="M66.53 17.38a50.45 50.45 0 0 0-32.75 13.14 50.47 50.47 0 0 0-15.57 28.02 50.4 50.4 0 0 0 84.41 45.53 50.47 50.47 0 0 0 14.43-26.1 50.5 50.5 0 0 0-3.19-30.48 50.45 50.45 0 0 0-47.33-30.11z"/><path fill="#fff" stroke="#000" stroke-width=".26" d="M67.74 53.94 45.88 37.62c-.82-.67-1.25-1.25-3.27-1.25-2.6 0-4.58 2.38-4.58 4.29L38 94.72s.26 4.52 4.71 4.52 4.96-4.14 4.96-4.14l-.1-39.12c0-.86 1.17-3.07 3.77-2.12l12.22 5.57a2.34 2.34 0 0 1 1.15 1.93v33.19c0 .51.43 1.1.92 1.1h2.12m0-41.7L89.6 37.63c.82-.68 1.25-1.26 3.27-1.26 2.6 0 4.58 2.38 4.58 4.29l.04 54.06s-.26 4.52-4.71 4.52-4.96-4.14-4.96-4.14l.1-39.12c0-.86-1.17-3.07-3.77-2.12l-12.22 5.57a2.34 2.34 0 0 0-1.15 1.93v33.19c0 .51-.43 1.1-.92 1.1h-2.11"/></svg>
