<?xml version="1.0" encoding="UTF-8"?>
<!-- Created with Inkscape (http://www.inkscape.org/) -->
<svg width="67.733mm" height="67.733mm" version="1.1" viewBox="0 0 67.733 67.733" xml:space="preserve" xmlns="http://www.w3.org/2000/svg"><g transform="translate(-3.4778 -86.804)"><path d="m69.094 154.54h-2.1167v-12.7h-4.2333v-16.933h-4.2333v-16.933h-4.2333v-8.4667h-4.2333v-4.2333h-21.167v-4.2333h-4.2333v4.2333h-4.2333v8.4667h-4.2333v16.933h-4.2333v16.933h-4.2333v12.7h-4.2333v-63.5h67.733v67.733z" fill="#930085"/><path d="m9.8278 154.54h-6.35v-4.2333h4.2333v-12.7h4.2333v-16.933h4.2333v-16.933h4.2333v-4.2333h4.2333v4.2333h4.2333v-4.2333h4.2333v-4.2333h16.933v4.2333h4.2333v8.4667h4.2333v16.933h4.2333v16.933h4.2333v12.7h-8.4667v-4.2333h-4.2333v-4.2333h-4.2333v-4.2333h-8.4667v-4.2333h8.4667v-4.2333h4.2333v-21.167h-4.2333v-4.2333h-4.2333v-4.2333h-16.933v4.2333h-4.2333v4.2333h-4.2333v21.167h4.2333v4.2333h8.4667v4.2333h-8.4667v4.2333h-4.2333v4.2333h-4.2333v4.2333z" fill="#730"/><path d="m37.344 146.07h-4.2333v-8.4667h-8.4667v-4.2333h-4.2333v-21.167h4.2333v-4.2333h4.2333v-4.2333h16.933v4.2333h4.2333v4.2333h4.2333v21.167h-4.2333v4.2333h-8.4667v8.4667zm0-12.7h4.2333v-4.2333h4.2333v-4.2333h-4.2333v4.2333h-8.4667v-4.2333h-4.2333v4.2333h4.2333v4.2333zm-6.35-16.933h2.1167v-4.2333h-4.2333v4.2333zm12.7 0h2.1167v-4.2333h-4.2333v4.2333z" fill="#f2d8bf"/><path d="m30.994 116.44h-2.1167v-4.2333h4.2333v4.2333zm12.7 0h-2.1167v-4.2333h4.2333v4.2333z" fill="#0c00ff"/><path d="m37.344 133.37h-4.2333v-4.2333h-4.2333v-4.2333h4.2333v4.2333h8.4667v-4.2333h4.2333v4.2333h-4.2333v4.2333z" fill="#efae70"/><path d="m37.344 154.54h-21.167v-4.2333h4.2333v-4.2333h4.2333v-4.2333h8.4667v4.2333h8.4667v-4.2333h8.4667v4.2333h4.2333v4.2333h4.2333v4.2333z" fill="#f00"/><path d="m26.761 103.74h-2.1167v-4.2333h-4.2333v-4.2333h4.2333v-4.2333h4.2333v4.2333h4.2333v4.2333h-4.2333v4.2333zm0-4.2333h2.1167v-4.2333h-4.2333v4.2333z" fill="#f20085"/><path d="m26.761 99.504h-2.1167v-4.2333h4.2333v4.2333z" fill="#a30059"/></g></svg>
