<?xml version="1.0" encoding="UTF-8"?>
<svg xmlns="http://www.w3.org/2000/svg" xmlns:xlink="http://www.w3.org/1999/xlink" width="100" height="100" viewBox="0 0 100 100" version="1.1">
<path d="M 35 17.5 C 35 13.359375 38.359375 10 42.5 10 L 61.894531 10 C 63.882812 10 65.789062 10.792969 67.195312 12.199219 L 82.804688 27.800781 C 84.210938 29.207031 85.003906 31.117188 85 33.109375 L 85 62.5 C 85 66.640625 81.640625 70 77.5 70 L 72.5 70 L 72.5 53.105469 C 72.5 49.128906 70.917969 45.3125 68.105469 42.5 L 52.5 26.894531 C 49.6875 24.082031 45.871094 22.5 41.894531 22.5 L 35 22.5 Z M 35 17.5 "/>
<path d="M 22.5 30 C 18.359375 30 15 33.359375 15 37.5 L 15 82.5 C 15 86.640625 18.359375 90 22.5 90 L 57.5 90 C 61.640625 90 65 86.640625 65 82.5 L 65 53.105469 C 65 51.117188 64.207031 49.210938 62.800781 47.804688 L 47.199219 32.195312 C 45.792969 30.789062 43.882812 29.996094 41.890625 30 Z M 22.5 30 "/>
</svg>
